PathFileType	4	(X/Y/Z)	E:\Qualisys_Data\Carbon_Farble_Plate\Data\Amateur_Runner\S14\T1\S14T1V11_c3d.trc
DataRate	CameraRate	NumFrames	NumMarkers	Units	OrigDataRate	OrigDataStartFrame	OrigNumFrames
200.000000	200.000000	5	39	mm	200.000000	174	349
Frame#	Time	LSHO			RSHO			LICST			RICST			LASIS			LHEEL			RASIS			LTROC			RTROC			SACR			LTH1			LSK4			LTH2			LTH3			RHM5			LSK2			LTH4			RTH1			LTOE			RTH2			RTH3			RTH4			LLEP			RLEP			LSK1			LSK3			RSK1			LHM5			RSK2			LFT1			RSK3			RSK4			LLME			RLME			RTOE			RHEEL			RFT1			RFT2			LFT2			
		X1	Y1	Z1	X2	Y2	Z2	X3	Y3	Z3	X4	Y4	Z4	X5	Y5	Z5	X6	Y6	Z6	X7	Y7	Z7	X8	Y8	Z8	X9	Y9	Z9	X10	Y10	Z10	X11	Y11	Z11	X12	Y12	Z12	X13	Y13	Z13	X14	Y14	Z14	X15	Y15	Z15	X16	Y16	Z16	X17	Y17	Z17	X18	Y18	Z18	X19	Y19	Z19	X20	Y20	Z20	X21	Y21	Z21	X22	Y22	Z22	X23	Y23	Z23	X24	Y24	Z24	X25	Y25	Z25	X26	Y26	Z26	X27	Y27	Z27	X28	Y28	Z28	X29	Y29	Z29	X30	Y30	Z30	X31	Y31	Z31	X32	Y32	Z32	X33	Y33	Z33	X34	Y34	Z34	X35	Y35	Z35	X36	Y36	Z36	X37	Y37	Z37	X38	Y38	Z38	X39	Y39	Z39	

175	0.87	186.9122924804688	1454.180053710938	-515.2183227539062	109.1626281738281	1457.713134765625	-225.3373870849609	105.3902282714844	1008.045349121094	-501.9973754882812	110.0248336791992	1010.982421875	-227.9180145263672	141.2968597412109	955.0104370117188	-477.0776977539062	-444.9903564453125	370.74462890625	-390.2400207519531	135.7822875976562	966.7479248046876	-246.4301300048828	-20.65876007080078	905.5475463867188	-522.8848266601562	-3.319224119186401	913.0673828125	-199.8225250244141	-29.12233924865723	1021.132263183594	-373.7955932617188	-4.155951023101807	671.6974487304688	-521.6409301757812	-294.4624328613281	458.2909851074219	-469.8154296875	-78.37666320800781	695.110107421875	-499.093994140625	-26.04801559448242	575.80029296875	-501.67041015625	406.8011779785156	123.6087265014648	-212.9000549316406	-212.7324066162109	512.60791015625	-488.6268005371094	-101.8165893554688	600.5768432617188	-481.8768920898438	190.515869140625	705.0944213867188	-192.3309020996094	-425.8543701171875	115.515022277832	-441.8249206542969	114.8090515136719	680.1412353515625	-185.1793212890625	223.8051910400391	615.8404541015625	-227.0153198242188	145.72265625	585.085693359375	-208.721923828125	-86.73310852050781	525.801025390625	-492.9690856933594	192.8154449462891	526.4414672851562	-219.2510375976562	-167.7098693847656	443.4680786132812	-494.9220275878906	-253.7222595214844	389.5025939941406	-481.8413696289062	243.1948852539062	413.695556640625	-214.4154052734375	-458.3565673828125	185.3345184326172	-489.2213745117188	159.9548645019531	393.0452575683594	-218.6483306884766	-462.6795043945312	349.6262817382812	-360.3468322753906	261.9532775878906	312.2044982910156	-227.0172882080078	183.9267425537109	299.8939819335938	-230.1838684082031	-421.4685363769531	330.1712036132812	-456.3733825683594	264.2256469726562	130.3728790283203	-249.271484375	469.3748168945312	172.846435546875	-267.4049682617188	228.3643035888672	82.14405059814453	-306.684326171875	255.9197540283203	65.36750793457031	-336.87744140625	238.9244995117188	58.04714202880859	-281.4639892578125	-475.7143859863281	365.8235168457031	-410.891845703125
176	0.875	201.9561004638672	1451.074096679688	-514.3856201171875	124.5901718139648	1454.135009765625	-224.8795776367188	120.4361801147461	1004.93408203125	-501.8591003417969	125.2914505004883	1008.097717285156	-227.6040191650391	156.9177551269531	952.2877197265624	-476.78857421875	-428.5172119140625	374.96875	-389.2281188964844	151.3715209960938	964.0473022460938	-245.9391479492188	-5.011203289031982	901.3810424804688	-522.507568359375	12.1313533782959	909.7321166992188	-200.0186614990234	-13.9428186416626	1017.303466796875	-373.6457214355469	14.16378974914551	667.6554565429688	-521.9679565429688	-275.7237548828125	458.5809631347656	-469.9389038085938	-60.59067916870117	690.4315185546875	-499.2019348144531	-6.895648002624512	571.4578247070312	-502.5253601074219	420.6325988769531	119.4322738647461	-215.6192016601562	-193.0254058837891	510.9267578125	-489.0906066894531	-83.0317153930664	595.480712890625	-482.5092468261719	207.2476348876953	702.7293701171875	-192.2688446044922	-413.8992614746094	120.0525588989258	-443.7107543945312	131.5490570068359	677.462646484375	-185.3099365234375	241.3090362548828	613.6831665039062	-227.2725677490234	162.9054412841797	582.7403564453125	-209.2553405761719	-67.24197387695312	521.840576171875	-494.3494262695312	209.5820617675781	523.54248046875	-219.3330078125	-149.5677642822266	441.030517578125	-496.1445922851562	-237.0863494873047	388.6659240722656	-482.1289672851562	258.5807800292969	409.92626953125	-214.9248657226562	-445.8592224121094	190.5762634277344	-489.7192077636719	175.2588500976562	390.5953674316406	-218.3925018310547	-446.5497436523438	353.288330078125	-359.1116638183594	276.8279724121094	308.587158203125	-227.6328430175781	198.7987976074219	296.6546020507812	-230.9033050537109	-405.9400939941406	334.0149536132812	-455.9502258300781	277.8277587890625	126.6000518798828	-249.8406372070312	482.5277404785156	168.6417236328125	-270.7936401367188	241.2186737060547	78.68126678466797	-307.1232604980469	268.1360778808594	61.57963562011719	-337.7938842773438	251.4944763183594	54.42229843139648	-282.23046875	-459.3497924804688	370.1819763183594	-410.262939453125
177	0.88	217.0033874511719	1447.6259765625	-513.66650390625	139.9064331054688	1450.380981445312	-223.8835754394531	135.4515228271484	1001.465148925781	-502.0309753417969	141.3043060302734	1004.907775878906	-227.4593505859375	172.0289764404297	949.16748046875	-476.62255859375	-411.81884765625	379.2153625488281	-388.1182861328125	167.1451110839844	961.2547607421876	-245.5739898681641	11.00560665130615	896.8595581054688	-522.1238403320312	27.48591232299805	906.5758056640624	-200.2028656005859	1.398683547973633	1013.489440917969	-373.4725036621094	32.17031097412109	663.6517944335938	-522.9476928710938	-257.0077514648438	458.735107421875	-470.2431945800781	-42.41884994506836	685.234375	-499.5417175292969	12.27786540985107	566.9749145507812	-503.5816040039062	433.615966796875	114.8496017456055	-218.2874908447266	-173.0729827880859	508.8438110351562	-489.737060546875	-63.77790069580078	590.0684204101562	-483.2393493652344	224.1201934814453	700.3955078125	-192.0045928955078	-401.8478698730469	124.325439453125	-445.08056640625	148.6459045410156	675.3146362304688	-185.9751586914062	258.7006530761719	611.4535522460938	-227.2682495117188	179.9315490722656	580.1166381835938	-210.3557739257812	-47.4515495300293	516.9854736328125	-495.4615783691406	226.5885620117188	520.9146728515625	-219.8179473876953	-131.6263885498047	437.6062316894531	-496.4591369628906	-220.0275573730469	388.0581359863281	-482.5728759765625	274.3869934082031	406.4698486328125	-215.4891510009766	-432.4270935058594	196.0441131591797	-490.613037109375	190.8356628417969	387.6313781738281	-218.5085754394531	-429.8149108886719	357.8498229980469	-357.5673217773438	291.2240295410156	304.4118041992188	-228.5230865478516	212.7949981689453	293.5754699707031	-231.1854705810547	-390.1489562988281	338.0499572753906	-455.5681762695312	290.4274597167969	122.7811584472656	-251.0054321289062	494.97998046875	163.6793212890625	-274.3277587890625	252.6737670898438	75.05402374267578	-307.4501037597656	279.2890930175781	58.12008666992188	-338.7686462402344	263.6650085449219	50.50740432739258	-282.8170776367188	-442.7221069335938	374.8110961914062	-409.1810607910156
178	0.885	231.9084930419922	1444.134643554688	-513.0850830078125	155.6849060058594	1446.25244140625	-223.1205139160156	150.37060546875	997.7890014648438	-501.8473510742188	156.0831604003906	1001.385131835938	-227.0076141357422	187.6249237060547	945.892578125	-476.1719665527344	-393.1802673339844	382.3152160644531	-388.5411987304688	182.8033752441406	957.9345092773438	-245.1712646484375	26.64092445373535	892.2271118164062	-521.8585205078125	43.10982131958008	903.1015625	-199.8890991210938	16.59334754943848	1009.392700195312	-373.2174682617188	50.69069290161133	659.349365234375	-523.2095947265625	-237.6665344238281	458.7106323242188	-470.5466003417969	-24.47159957885742	679.7116088867188	-500.0620727539062	31.84074211120605	562.0224609375	-504.690673828125	446.0532531738281	109.3563842773438	-220.8441162109375	-152.4811401367188	506.3427734375	-490.293212890625	-44.26696014404297	584.3575439453125	-484.287841796875	241.1655731201172	697.3112182617188	-192.3623352050781	-389.0062255859375	128.61376953125	-446.7425842285156	166.5800933837891	672.8579711914062	-187.9651947021484	276.1987915039062	608.48486328125	-227.3862457275391	197.8311614990234	577.7797241210938	-211.8540802001953	-27.29549598693848	511.8857421875	-496.6490478515625	243.2576599121094	517.5267333984375	-220.2942199707031	-113.1350708007812	434.4290161132812	-497.5106506347656	-202.49609375	386.69775390625	-482.7508544921875	289.6045227050781	402.2354125976562	-216.4863739013672	-418.5569458007812	200.9669342041016	-491.1513366699219	206.1061248779297	384.2511596679688	-219.3007659912109	-412.1856384277344	361.454833984375	-356.6521301269531	305.1484985351562	300.2579040527344	-229.2769317626953	226.6187896728516	290.1253051757812	-231.6814270019531	-373.7360229492188	342.0676879882812	-455.0145568847656	302.3940124511719	118.5266342163086	-251.8530731201172	506.8921813964844	157.9488677978516	-278.0458374023438	263.142578125	70.66504669189453	-307.1891784667969	289.459228515625	53.87679290771484	-339.4468688964844	274.7648620605469	46.62132263183594	-283.0898742675781	-425.3804016113281	379.5478515625	-408.0113525390625
179	0.89	246.7078247070312	1440.233032226562	-512.281005859375	171.0616912841797	1442.140625	-222.1880035400391	165.5886688232422	994.0791625976562	-501.9561462402344	171.6587524414062	998.40869140625	-226.3438415527344	202.7930145263672	942.0239868164062	-475.9220581054688	-375.3932800292969	385.7588195800781	-387.4685668945312	198.6002960205078	954.8684692382812	-244.6242065429688	42.44252777099609	887.15869140625	-521.6106567382812	59.02461624145508	899.614013671875	-200.1693878173828	31.90214920043945	1004.765380859375	-373.0716552734375	69.4233169555664	654.5067138671875	-523.5878295898438	-217.8082122802734	457.6299133300781	-470.8619995117188	-5.955698490142822	673.4075317382812	-500.3074035644531	52.23091506958008	557.4134521484375	-505.6715393066406	457.9418029785156	103.0479888916016	-224.3348083496094	-131.6523284912109	503.4917907714844	-491.0911254882812	-24.6210765838623	578.2066040039062	-485.3387756347656	258.4626159667969	694.11669921875	-192.2949676513672	-375.3622741699219	132.7035522460938	-448.0772094726562	183.7361145019531	669.7445068359375	-189.127197265625	293.6878356933594	605.479248046875	-227.3822937011719	215.2672882080078	575.1242065429688	-212.5151977539062	-6.833987712860107	506.5252380371094	-497.9266052246094	259.8499145507812	514.1310424804688	-220.5840301513672	-93.7634735107422	430.8233642578125	-498.7204284667969	-184.2969055175781	384.9547424316406	-483.0794982910156	304.5408935546875	397.4615478515625	-217.2110290527344	-404.1174926757812	206.0799407958984	-491.7198486328125	220.8239135742188	380.5347900390625	-219.4507293701172	-394.846435546875	365.0223388671875	-355.5340270996094	319.0109252929688	295.2992248535156	-230.3431091308594	240.3097686767578	286.6491088867188	-231.2858734130859	-356.7584533691406	345.3287658691406	-454.693115234375	314.2621459960938	114.0375442504883	-252.2744140625	518.2139892578125	151.6621246337891	-281.8434753417969	273.8567504882812	68.39385223388672	-308.3232116699219	298.6676635742188	50.28114700317383	-340.1188354492188	284.4508361816406	44.18139266967773	-283.3124694824219	-407.5696716308594	383.9771118164062	-407.0842895507812
